# xmcd CD database file
#
# Track frame offsets:
#	150
#	12337
#	23065
#	35815
#	49190
#	62515
#	74302
#	83595
#	95060
#	108035
#	121462
#
# Disc length: 1791 seconds
#
# Revision: 4
# Processed by: cddbd v1.5PL3 Copyright (c) Steve Scherf et al.
# Submitted via: CDex 1.50beta9
#
DISCID=8a06fd0b
DTITLE=Tammy Wynette - Greatest Hits
DYEAR=2003
DGENRE=Country
TTITLE0=Stand By Your Man
TTITLE1=Singing My Song
TTITLE2=Take Me To Your World
TTITLE3=Apartment #9
TTITLE4=D-I-V-O-R-C-E
TTITLE5=I Don't Wanna Play House
TTITLE6=Your Good Girl's Gonna Go Bad
TTITLE7=Run, Angel, Run
TTITLE8=Too Far Gone
TTITLE9=Almost Persuaded
TTITLE10=My Elusive Dreams
EXTD=YEAR: 2003
EXTT0=
EXTT1=
EXTT2=
EXTT3=
EXTT4=
EXTT5=
EXTT6=
EXTT7=
EXTT8=
EXTT9=
EXTT10=
PLAYORDER=
